<svg version="1.1" xmlns="http://www.w3.org/2000/svg" xmlns:xlink="http://www.w3.org/1999/xlink" x="0px" y="0px" viewBox="0 -200 800 900" xml:space="preserve" ><g><g><path style="fill: #FFF" d="M400,46.88L400,46.88c-65.52,0-118.63,53.11-118.63,118.63v72.81c25.72,0,46.58-20.85,46.58-46.58v-29.28
			c0-39.48,32-71.48,71.48-71.48h1.14c39.48,0,71.48,32,71.48,71.48v7.85c0,11.55-4.3,22.7-12.06,31.25l-92.93,102.46
			c-17.28,19.05-15.85,48.51,3.21,65.79h0l120.6-132.55c17.86-19.63,27.76-45.22,27.76-71.77v0C518.63,99.99,465.52,46.88,400,46.88
			z"></path><path style="fill: #FFF" d="M400,452.99L400,452.99c65.52,0,118.63-53.11,118.63-118.63v-72.81c-25.72,0-46.58,20.85-46.58,46.58v29.28
			c0,39.48-32,71.48-71.48,71.48h-1.14c-39.48,0-71.48-32-71.48-71.48v-7.85c0-11.55,4.3-22.7,12.06-31.25l92.93-102.46
			c17.28-19.05,15.85-48.51-3.21-65.79h0L309.14,262.6c-17.86,19.63-27.76,45.22-27.76,71.77v0
			C281.37,399.88,334.48,452.99,400,452.99z"></path></g></g></svg>